<svg xmlns="http://www.w3.org/2000/svg" data-name="Layer 1" viewBox="0 0 100 125" x="0px" y="0px"><title>Noun_Project_20Icon_10px_grid</title><path d="M86.85,22.73A5.13,5.13,0,0,0,84,32.12L67.77,65.55l1.76-47.71a5.12,5.12,0,1,0-2.11-.41L55.36,56.37l-3.88-42.2a5.13,5.13,0,1,0-2.17,0l-3.88,42.2L33.36,17.43a5.14,5.14,0,1,0-2.11.41L33,65.55,16.79,32.12a5.13,5.13,0,1,0-2.86.87,5.08,5.08,0,0,0,.8-0.08L28.17,89.06C28.78,93.62,39.65,96,50.39,96S72,93.62,72.61,89.06L86,32.91a5.08,5.08,0,0,0,.8.08A5.13,5.13,0,1,0,86.85,22.73Zm-76,5.13A3.13,3.13,0,1,1,13.94,31,3.13,3.13,0,0,1,10.8,27.86ZM66.33,12.72a3.13,3.13,0,1,1,3.13,3.13A3.13,3.13,0,0,1,66.33,12.72ZM47.26,9.16a3.13,3.13,0,1,1,3.13,3.13A3.13,3.13,0,0,1,47.26,9.16ZM28.2,12.72a3.13,3.13,0,1,1,3.13,3.13A3.13,3.13,0,0,1,28.2,12.72ZM50.39,94c-12.55,0-20.25-3.11-20.25-5.34s7.7-5.34,20.25-5.34,20.25,3.11,20.25,5.34S62.94,94,50.39,94Zm20.9-8C68,82.9,59.16,81.31,50.39,81.31S32.78,82.9,29.49,86L18.59,40.4l14.7,30.3a1,1,0,0,0,1.9-.47L33.5,24.66,45,61.77a1,1,0,0,0,2-.2L50.39,24.2l3.44,37.37a1,1,0,0,0,2,.2l11.5-37.11L65.6,70.23a1,1,0,0,0,1.9.47L82.2,40.4ZM86.85,31A3.13,3.13,0,1,1,90,27.86,3.13,3.13,0,0,1,86.85,31Z"/><text x="0" y="115" fill="#000000" font-size="5px" font-weight="bold" font-family="'Helvetica Neue', Helvetica, Arial-Unicode, Arial, Sans-serif">Created by robin grawitter</text><text x="0" y="120" fill="#000000" font-size="5px" font-weight="bold" font-family="'Helvetica Neue', Helvetica, Arial-Unicode, Arial, Sans-serif">from the Noun Project</text></svg>