<svg xmlns="http://www.w3.org/2000/svg" data-name="Layer 1" viewBox="0 0 68 85" x="0px" y="0px"><title>Artboard 22@5x</title><path d="M26,47.92a1,1,0,0,1-1-1V11.19a1,1,0,1,1,2,0V46.92A1,1,0,0,1,26,47.92Z"/><path d="M31.35,48.59a1,1,0,0,1-1-1V11.19a1,1,0,1,1,2,0v36.4A1,1,0,0,1,31.35,48.59Z"/><path d="M36.66,48.59a1,1,0,0,1-1-1V11.19a1,1,0,1,1,2,0v36.4A1,1,0,0,1,36.66,48.59Z"/><path d="M42,47.92a1,1,0,0,1-1-1V11.19a1,1,0,1,1,2,0V46.92A1,1,0,0,1,42,47.92Z"/><path d="M42.26,61.41H25.75a1,1,0,0,1-1-1v-6a1,1,0,0,1,.37-.77,1,1,0,0,1,.83-.21,41.53,41.53,0,0,0,8.06.87,41.49,41.49,0,0,0,8-.87,1,1,0,0,1,.84.21,1,1,0,0,1,.37.77v6A1,1,0,0,1,42.26,61.41Zm-15.51-2H41.26V55.6a42.69,42.69,0,0,1-7.25.68,42.62,42.62,0,0,1-7.26-.68Z"/><path d="M42.63,12.19H25.37a1,1,0,0,1-.8-.39,1,1,0,0,1-.17-.87,22,22,0,0,0,.68-3.49,1,1,0,0,1,1-.91H41.93a1,1,0,0,1,1,.91,22.43,22.43,0,0,0,.67,3.49,1,1,0,0,1-1,1.26Zm-16-2H41.35C41.21,9.55,41.11,9,41,8.53H27C26.89,9,26.79,9.55,26.64,10.19Z"/><path d="M34,56.28c-10.53-.1-20.78-4.11-24.4-9.53C4.7,39.38,12.15,27,14.6,22.87a55.2,55.2,0,0,0,5.46-11.5,4.87,4.87,0,0,1-3.49-4.54A5.07,5.07,0,0,1,21.83,2,5.07,5.07,0,0,1,27.1,6.83c0,1.13-.34,7.38-7.19,18.8C16,32.22,15.12,37.57,17.48,41.1S25.59,46.62,34,46.68s14.11-2,16.51-5.58S52,32.22,48.09,25.63C41.24,14.21,40.9,8,40.9,6.83a5.28,5.28,0,0,1,10.53,0,4.87,4.87,0,0,1-3.49,4.54,55.2,55.2,0,0,0,5.46,11.5c2.45,4.09,9.9,16.51,5,23.88h0C54.77,52.17,44.51,56.18,34,56.28ZM21.83,4a3.07,3.07,0,0,0-3.26,2.83,3,3,0,0,0,2.86,2.8,1,1,0,0,1,.72.43,1,1,0,0,1,.13.82,52.72,52.72,0,0,1-6,13c-2.28,3.82-9.24,15.42-5,21.74,3.22,4.83,13,8.55,22.73,8.64,9.71-.09,19.48-3.81,22.71-8.64h0c4.21-6.32-2.75-17.92-5-21.74a52.72,52.72,0,0,1-6-13,1,1,0,0,1,.13-.82,1,1,0,0,1,.72-.43,3,3,0,0,0,2.86-2.8,3.3,3.3,0,0,0-6.53,0c0,.64.19,6.57,6.9,17.78C54.18,31.9,55,38,52.18,42.21S43.12,48.62,34,48.68s-15.41-2.3-18.2-6.47-2-10.31,2.39-17.6c6.71-11.2,6.9-17.14,6.9-17.78A3.07,3.07,0,0,0,21.83,4ZM57.55,46.19h0Z"/><path d="M46.25,66H21.75a3.3,3.3,0,1,1,0-6.59h24.5a3.3,3.3,0,1,1,0,6.59Zm-24.5-4.59a1.3,1.3,0,1,0,0,2.59h24.5a1.3,1.3,0,1,0,0-2.59Z"/><text x="0" y="83" fill="#000000" font-size="5px" font-weight="bold" font-family="'Helvetica Neue', Helvetica, Arial-Unicode, Arial, Sans-serif">Created by Bernd Lakenbrink</text><text x="0" y="88" fill="#000000" font-size="5px" font-weight="bold" font-family="'Helvetica Neue', Helvetica, Arial-Unicode, Arial, Sans-serif">from the Noun Project</text></svg>