<svg xmlns="http://www.w3.org/2000/svg" data-name="Layer 51" viewBox="0 0 100 125" x="0px" y="0px"><title>1. Person at a mountain holding a flag</title><path d="M5.87,96H94.13A1,1,0,0,0,95,94.44L83.62,77.53a1,1,0,0,0-.64-.42l-11.5-2.27L60.94,59.09a1,1,0,0,0-.83-.44h-.37L56.06,32.37l6.54-6.8,7.14,18.24a1,1,0,0,0,.53.55.93.93,0,0,0,.4.09,1.21,1.21,0,0,0,.37-.07l2.25-.89a1,1,0,0,0,.57-1.29L66,22a1,1,0,0,0,0-.93l-1.12-2-1.15-2.93L73,7.71a1,1,0,0,0,.29-1,1,1,0,0,0-.82-.7L58.36,4h-.15a.83.83,0,0,0-.35.06h0L55.6,5a1,1,0,0,0-.55.53,1,1,0,0,0,0,.77l5.51,14.07-7,4.54H49.84a5.84,5.84,0,1,0-.38,0h-4.3a1,1,0,0,0-.82.42L34.75,38.9a1,1,0,0,0,.11,1.29L36.63,42a1,1,0,0,0,.72.29,1,1,0,0,0,.71-.31l4.49-4.68-3,21.39h-1a1,1,0,0,0-.83.45L24.24,79.58,16,76.39a1,1,0,0,0-1.24.45L5,94.51a1,1,0,0,0,0,1A1,1,0,0,0,5.87,96ZM64.45,23.64,71.63,42l-.39.15L64.12,24Zm5.62-16-7.19,6.5h0l-3-7.73-.08-.2ZM57.26,6.45l.4-.15,3.89,9.94h0L62.62,19l-.36.24ZM45.81,19a3.84,3.84,0,1,1,3.84,3.84A3.85,3.85,0,0,1,45.81,19ZM45,34.47a1,1,0,0,0-.55-1,1,1,0,0,0-1.16.21l-5.93,6.18-.45-.45,8.81-12.51h8.17a1,1,0,0,0,.54-.16l6.9-4.48.85-.55.86-.56.36-.24.12-.07.34.6-.18.19-.32.34-.76.79-.77.8-7.51,7.82a1,1,0,0,0-.27.83l3.71,26.48H56.46L50.58,44a1,1,0,0,0-1.86,0L42.84,58.65H41.57ZM54.3,58.65H45L49.65,47ZM16.13,78.57l8.14,3.17a1,1,0,0,0,1.2-.38L39.05,60.65H59.58L70,76.29a1,1,0,0,0,.64.43L82.19,79,92.26,94H7.57Z"/><text x="0" y="115" fill="#000000" font-size="5px" font-weight="bold" font-family="'Helvetica Neue', Helvetica, Arial-Unicode, Arial, Sans-serif">Created by Matthias Hartmann</text><text x="0" y="120" fill="#000000" font-size="5px" font-weight="bold" font-family="'Helvetica Neue', Helvetica, Arial-Unicode, Arial, Sans-serif">from the Noun Project</text></svg>