<svg xmlns="http://www.w3.org/2000/svg" version="1.0" viewBox="0 0 409 522.5" preserveAspectRatio="xMidYMid meet" x="0px" y="0px"><g transform="translate(0.000000,418.000000) scale(0.100000,-0.100000)" fill="#000000" stroke="none"><path d="M149 4158 c-19 -13 -42 -39 -51 -58 -9 -19 -33 -127 -54 -240 -34 -186 -37 -225 -41 -425 -7 -314 24 -528 113 -807 108 -334 245 -556 455 -737 202 -176 418 -275 626 -288 l92 -6 7 -45 c6 -41 4 -48 -17 -61 -13 -9 -57 -43 -99 -76 -228 -184 -400 -506 -473 -891 -34 -176 -66 -474 -51 -474 29 0 229 55 312 86 414 154 744 436 874 745 l33 79 35 -7 c19 -3 81 -7 138 -7 l103 -1 28 -72 c156 -400 603 -738 1145 -867 l29 -7 -6 133 c-26 530 -172 933 -432 1193 -44 45 -101 95 -126 112 l-46 32 11 50 10 51 75 0 c222 0 533 152 746 365 139 138 238 296 331 528 169 419 211 854 134 1376 -29 196 -37 220 -87 255 l-42 29 -93 -38 c-310 -127 -664 -333 -923 -536 -414 -324 -698 -693 -840 -1092 l-32 -89 -13 48 c-56 207 -189 463 -352 682 -95 127 -393 424 -538 536 -236 182 -539 368 -780 477 -164 74 -160 74 -201 47z m247 -313 c606 -324 1067 -753 1294 -1205 38 -77 120 -276 120 -293 0 -3 -28 -15 -61 -28 -184 -68 -349 -237 -419 -428 l-28 -76 -62 2 c-224 6 -576 231 -725 462 -131 203 -239 523 -281 831 -23 173 -18 419 11 600 27 164 33 190 42 190 4 0 53 -25 109 -55z m3455 -172 c55 -398 6 -765 -157 -1165 -54 -133 -106 -237 -154 -308 -134 -196 -479 -403 -696 -417 l-81 -6 -22 74 c-63 208 -217 377 -421 464 -25 10 -48 22 -53 25 -11 9 26 110 82 225 221 454 690 884 1309 1202 79 40 149 73 156 73 9 0 20 -49 37 -167z m-1664 -1574 c171 -58 292 -198 324 -372 30 -163 -43 -334 -188 -443 -172 -130 -408 -131 -588 -3 -155 112 -230 321 -177 496 42 136 126 235 257 299 117 57 250 65 372 23z m-750 -869 c51 -66 142 -148 200 -178 l32 -17 -43 -90 c-117 -247 -369 -464 -677 -585 l-51 -20 7 42 c41 260 121 488 236 663 49 77 222 259 239 253 4 -2 30 -32 57 -68z m1329 -61 c175 -184 298 -478 340 -817 l7 -53 -28 11 c-120 46 -311 164 -432 268 -109 93 -232 271 -278 401 l-14 40 53 29 c67 38 144 104 197 169 l42 52 26 -18 c14 -11 53 -48 87 -82z"/><path d="M529 3586 c-60 -21 -105 -54 -135 -97 -39 -57 -47 -165 -16 -226 47 -92 153 -149 262 -141 l58 4 7 -43 c4 -28 18 -57 38 -80 130 -148 388 -16 313 160 -26 60 -93 107 -154 107 l-27 0 3 73 c3 60 0 82 -17 114 -56 111 -213 172 -332 129z m156 -122 c62 -29 87 -91 59 -149 -48 -102 -201 -100 -249 2 -16 33 -16 42 -4 77 26 76 115 108 194 70z m239 -330 c33 -32 13 -74 -35 -74 -29 0 -59 23 -59 45 0 21 29 45 55 45 13 0 31 -7 39 -16z"/></g><text x="0" y="433" fill="#000000" font-size="5px" font-weight="bold" font-family="'Helvetica Neue', Helvetica, Arial-Unicode, Arial, Sans-serif">Created by Julia Mello</text><text x="0" y="438" fill="#000000" font-size="5px" font-weight="bold" font-family="'Helvetica Neue', Helvetica, Arial-Unicode, Arial, Sans-serif">from the Noun Project</text></svg>